<svg xmlns="http://www.w3.org/2000/svg" width="137" height="16" fill="none" viewBox="0 0 137 16">
  <path fill="#F70" d="M1.12 10.68c0 1.04.656 1.792 2.368 1.792h.16c1.248 0 2.128-.192 2.736-.544l.416-.24c.288-.16.528-.256.96-.256h1.28c.272 0 .352-.08.352-.336V1.944H.32v.64h.16c.496 0 .64.192.64.56v7.536Zm12.832 4.56V7.688h1.568v-.64h-1.568V1.304h-4.08v.56h.24c.496 0 .64.192.64.56V15.24h3.2Zm-8.96-3.568c-.656 0-.672-.448-.672-1.168v-7.92h1.872v8.448c0 .448-.448.64-1.04.64h-.16Zm17.92-10.368h-4v.64h.16c.496 0 .64.192.64.56v.16c0 .368 0 .704-.016 1.04H16.48v.64h3.2c-.144 3.2-.896 5.28-4.08 7.536l.448.592c2.544-.896 4.336-2.352 5.44-4.304.992 1.184 1.52 2.368 2.08 4.224l2.32-1.696c-.672-1.856-1.84-3.312-3.648-4.176a13.1 13.1 0 0 0 .512-2.176h2.64v-.64h-2.56c.048-.512.08-1.04.08-1.6v-.8Zm6.88 13.936V1.304h-4.08v.56h.24c.496 0 .64.192.64.56V15.24h3.2ZM36.636 7c0 1.04.656 1.792 2.368 1.792h.16c1.248 0 2.128-.192 2.736-.544l.416-.24c.288-.16.528-.256.96-.256h1.28c.272 0 .352-.08.352-.336V1.944h-9.072v.64h.16c.496 0 .64.192.64.56V7Zm12.768 2.912h-11.52v.64h4.16c0 2.016-.928 3.072-5.088 4.192l.288.656c2.672-.304 5.728-1.136 7.168-2.816 1.44.592 2.672 1.472 3.808 2.816l1.84-2.112c-1.68-1.216-3.2-1.664-5.008-1.792a3.53 3.53 0 0 0 .176-.944h4.176v-.64Zm.064-.752V5.448h1.568v-.64h-1.568V1.304h-4.08v.56h.24c.496 0 .64.192.64.56V9.16h3.2Zm-8.96-1.168c-.656 0-.672-.448-.672-1.168v-4.24h1.872v4.768c0 .448-.448.64-1.04.64h-.16Zm11.887 2.288v.64h.16c.496 0 .64.192.64.56v2.128c0 1.04.656 1.792 2.368 1.792h.16c2.432 0 3.424-.256 4.48-.688l1.456-.592c.208-.08.448-.128.88-.128h1.344c.272 0 .352-.08.352-.336V10.28h-4.08V8.92h5.76v-.64h-14.72v.64h5.76v1.36h-4.56Zm.32-6.896h4.288c-.512 1.648-2.672 3.008-5.184 3.712l.336.656c2.432-.32 4.992-1.168 6.592-2.592 1.888.592 2.864 1.2 4.416 2.576l1.696-2.08c-1.776-1.024-2.928-1.36-5.168-1.584a4.63 4.63 0 0 0 .352-.688h4.352v-.64h-4.16c.048-.256.08-.512.08-.8v-.96h-4v.64h.16c.496 0 .64.192.64.56v.48c0 .032-.016.064-.016.08h-4.384v.64Zm3.68 7.536h4.64v2.272c0 .352-.08.48-.464.624l-.432.16c-.656.24-1.6.304-2.432.304h-.16c-.896 0-1.152-.448-1.152-1.168V10.92Zm23.581-6.032h2.288v7.984c0 .352-.08.464-.464.624l-.608.256c-.736.304-1.712.528-3.088.528h-.16c-.896 0-1.152-.448-1.152-1.168V10.44h-4v.64h.16c.496 0 .64.192.64.56v1.968c0 1.04.656 1.792 2.368 1.792h.16c2.704 0 4.128-.576 5.392-1.088l1.456-.592c.208-.08.448-.128.88-.128h1.264c.272 0 .352-.08.352-.336V1.304h-4.08v.56h.24c.496 0 .64.192.64.56v1.824h-2.288v.64Zm-1.392-3.104h-4v.64h.16c.496 0 .64.192.64.56v.16c0 2.256-.528 4.096-4.112 5.856l.448.592c2.32-.512 4.336-1.52 5.584-3.12.896.864 1.504 1.904 1.984 3.04L81.4 7.608c-.992-1.312-1.936-2.048-3.296-2.528.304-.736.48-1.568.48-2.496v-.8Zm20.815 4.64c.272 0 .352-.08.352-.336V1.624h-12v.64h.16c.496 0 .64.192.64.56v1.808c0 1.04.656 1.792 2.368 1.792h8.48ZM88.31 10.44h7.76v1.68h-8v.64h.16c.496 0 .64.192.64.56v.56c0 .96.688 1.44 2.048 1.44h8.912v-.64h-6.608c-.72 0-.832-.144-.832-.816V12.76h6.848c.272 0 .352-.08.352-.336V9.8h-3.92V8.28h5.76v-.64H86.71v.64h5.76V9.8h-4.16v.64Zm8.24-4.656h-3.648c-.896 0-1.152-.448-1.152-1.168V2.264h4.8v3.52Zm24.109 8.816h-7.28c-.736 0-.832-.304-.832-.944v-.896h7.632v-.64h-7.632v-1.68h7.952V9.8h-11.952v.64h.16c.496 0 .64.192.64.56v2.8c0 .96.656 1.44 2.048 1.44h9.264v-.64Zm-.16-5.44V5.448h1.568v-.64h-1.568V1.304h-4.08v.56h.24c.496 0 .64.192.64.56V9.16h3.2Zm-4.88-7.216h-7.744v.64h4.544v.48c0 2.24-1.504 4.016-5.232 5.296l.304.624c4.336-.544 8.128-2.8 8.128-6.56v-.48Zm6.608 6.656v.64h14.72V8.6h-14.72Zm1.84 5.2c0 .96.688 1.44 2.048 1.44h9.312v-.64h-7.328c-.736 0-.832-.336-.832-.976V10.6h-4v.64h.16c.496 0 .64.192.64.56v2Zm11.28-9.536c0-1.776-1.504-2.96-5.76-2.96s-5.76 1.184-5.76 2.96 1.504 2.96 5.76 2.96 5.76-1.184 5.76-2.96Zm-3.2 0c0 1.28-.544 2.32-2.56 2.32s-2.56-1.04-2.56-2.32c0-1.28.544-2.32 2.56-2.32s2.56 1.04 2.56 2.32Z"/>
</svg>
