<svg xmlns="http://www.w3.org/2000/svg" width="18" height="18" fill="none" viewBox="0 0 18 18">
  <rect width="16" height="16" x="1" y="1" fill="#F5C518" rx="3"/>
  <path fill="#000" d="M6 4.5a.5.5 0 0 0 0-1v1ZM4 14h-.5a.5.5 0 0 0 .5.5V14ZM4 4v-.5a.5.5 0 0 0-.5.5H4Zm0 10.5h3v-1H4v1ZM3.5 9v5h1V9h-1ZM7 8.5H4v1h3v-1ZM7 14v.5h.016a1.311 1.311 0 0 0 .114-.007 2.622 2.622 0 0 0 1.135-.382C8.921 13.701 9.5 12.91 9.5 11.5h-1c0 1.09-.421 1.549-.765 1.764a1.62 1.62 0 0 1-.733.236h-.006H7v.5Zm2.5-2.5c0-1.41-.579-2.201-1.235-2.611A2.621 2.621 0 0 0 7.006 8.5h-.005L7 9v.5h-.004.006l.04.003a1.621 1.621 0 0 1 .694.234c.343.214.764.673.764 1.763h1ZM6 3.5H4v1h2v-1ZM3.5 4v5h1V4h-1Z"/>
  <path stroke="#000" stroke-linecap="round" stroke-linejoin="round" d="M9 9V4l2.5 3L14 4v5m-1 2.5s1 .25 1 1.25S13 14 13 14H9v-2.5m4 0H9m4 0s1 0 1-1.25S13 9 13 9H9v2.5"/>
</svg>
