<svg width="700" height="1030" viewBox="0 0 700 1030" fill="none" xmlns="http://www.w3.org/2000/svg">
<rect width="700" height="1030" fill="#FF7700"/>
<path d="M251.613 546.221H244.09V556.627H251.613V546.221ZM246.006 555.062V547.75H249.662V555.062H246.006ZM254.021 560.564H255.973V552.426H258.416V550.773H255.973V544.674H254.021V560.564ZM272.285 544.674H270.334V560.564H272.285V544.674ZM259.242 556.047L260.297 557.559C262.151 556.75 263.522 555.054 264.234 553.023C264.964 554.939 266.335 556.521 268.154 557.295L269.227 555.801C266.66 554.729 265.175 552.136 265.184 549.719V548.893H268.594V547.328H265.166V545.008H263.232V547.328H259.734V548.893H263.232V549.719C263.232 552.259 261.773 554.931 259.242 556.047ZM286.98 545.729H279.457V552.637H286.98V545.729ZM280.389 559L281.109 560.477C283.579 560.143 285.442 559.097 286.356 557.664C287.271 559.097 289.151 560.16 291.639 560.512L292.342 559.018C289.564 558.631 287.771 557.348 287.455 555.994H291.674V554.447H281.039V555.994H285.275C284.959 557.383 283.201 558.622 280.389 559ZM281.373 551.072V547.293H285.064V551.072H281.373ZM289.494 553.639H291.445V549.859H293.66V548.242H291.445V544.674H289.494V553.639ZM308.953 552.391H294.469V553.938H300.727V555.326H296.174V560.371H307.195V555.326H302.66V553.938H308.953V552.391ZM295.154 550.229L295.734 551.67C298.573 551.45 300.691 550.606 301.693 549.262C302.687 550.606 304.805 551.45 307.67 551.67L308.232 550.229C304.91 549.991 303.029 548.928 302.81 547.627H307.529V546.08H302.66V544.656H300.727V546.08H295.893V547.627H300.577C300.349 548.928 298.494 549.991 295.154 550.229ZM298.107 558.789V556.891H305.297V558.789H298.107ZM320.08 547.486V545.658H318.111V547.469C318.103 549.789 316.802 551.986 314.244 552.848L315.281 554.395C317.145 553.7 318.445 552.329 319.122 550.58C319.799 552.145 321.021 553.384 322.734 554.025L323.807 552.496C321.337 551.652 320.071 549.596 320.08 547.486ZM317.127 560.248H327.955V558.666H319.113V555.203H317.127V560.248ZM322.488 549.789H325.652V556.486H327.604V544.691H325.652V548.189H322.488V549.789ZM344.338 551.125H329.854V552.672H336.094V553.867H331.559V555.344H340.611V556.363H331.576V560.424H342.967V558.93H333.492V557.77H342.527V553.867H338.045V552.672H344.338V551.125ZM331.682 550.123H342.475V545.166H331.682V550.123ZM333.598 548.594V546.695H340.523V548.594H333.598ZM362.215 544.674H360.264V553.059H362.215V549.719H364.43V548.119H362.215V544.674ZM349.646 551.793L350.473 553.357C355.254 552.399 357.908 549.886 357.926 545.781H350.402V547.328H355.737C355.509 549.341 353.619 551.063 349.646 551.793ZM351.879 560.371H362.637V558.912H353.848V557.717H362.109V556.311H353.848V555.15H362.268V553.709H351.879V560.371ZM379.723 552.883H365.238V554.447H379.723V552.883ZM366.732 548.4C366.732 550.422 368.991 551.652 372.463 551.652C375.926 551.652 378.185 550.422 378.193 548.4C378.185 546.388 375.926 545.175 372.463 545.184C368.991 545.175 366.732 546.388 366.732 548.4ZM367.031 560.248H378.088V558.666H368.982V555.625H367.031V560.248ZM368.771 548.4C368.754 547.354 370.151 546.748 372.463 546.748C374.783 546.748 376.172 547.354 376.172 548.4C376.172 549.481 374.783 550.062 372.463 550.053C370.151 550.062 368.754 549.481 368.771 548.4ZM383.889 557.752H381.656L380.742 562.674H382.412L383.889 557.752ZM404.139 554.219H389.654V555.818H395.912V560.582H397.846V555.818H404.139V554.219ZM390.445 551.705L391.148 553.252C393.794 552.918 395.859 551.784 396.896 550.237C397.925 551.767 399.964 552.918 402.592 553.252L403.312 551.705C400.14 551.318 398.065 549.675 397.881 548.102H402.785V546.555H397.846V544.691H395.912V546.555H390.99V548.102H395.895C395.701 549.692 393.618 551.318 390.445 551.705ZM410.924 548.436V548.189H414.246V546.643H410.941V544.779H408.973V546.643H405.65V548.189H408.973V548.436C408.973 550.475 407.663 552.417 405.158 553.199L406.107 554.729C407.962 554.131 409.271 552.892 409.975 551.318C410.695 552.777 412.005 553.929 413.807 554.465L414.756 552.936C412.242 552.162 410.915 550.325 410.924 548.436ZM408.094 560.248H418.922V558.666H410.045V555.467H408.094V560.248ZM413.719 550.984H416.566V556.486H418.518V544.691H416.566V549.42H413.719V550.984ZM429.451 545.57C427.052 545.562 425.25 547.17 425.25 549.42C425.25 551.652 427.052 553.261 429.451 553.252C430.726 553.261 431.833 552.786 432.589 552.004H436.395V554.025H438.346V544.674H436.395V546.836H432.598C431.851 546.036 430.734 545.562 429.451 545.57ZM427.113 549.42C427.113 548.075 428.089 547.24 429.451 547.24C430.77 547.24 431.745 548.075 431.754 549.42C431.745 550.721 430.77 551.6 429.451 551.6C428.089 551.6 427.113 550.721 427.113 549.42ZM427.57 557.453C427.553 559.404 429.636 560.547 432.967 560.547C436.307 560.547 438.39 559.404 438.398 557.453C438.39 555.493 436.307 554.351 432.967 554.359C429.636 554.351 427.553 555.493 427.57 557.453ZM429.486 557.453C429.469 556.416 430.761 555.862 432.967 555.854C435.217 555.862 436.482 556.416 436.482 557.453C436.482 558.464 435.217 559.009 432.967 559.018C430.761 559.009 429.469 558.464 429.486 557.453ZM433.477 548.4H436.395V550.422H433.485C433.564 550.105 433.617 549.771 433.617 549.42C433.617 549.06 433.564 548.726 433.477 548.4ZM453.164 544.674H451.195V560.564H453.164V552.865H455.396V551.23H453.164V544.674ZM440.402 556.152L440.684 557.77C443.391 557.77 447.064 557.743 450.475 557.119L450.352 555.695C449.104 555.871 447.768 555.977 446.432 556.047V554.632C448.163 554.342 449.314 553.261 449.332 551.758C449.314 549.965 447.724 548.778 445.465 548.77C443.18 548.778 441.606 549.965 441.615 551.758C441.606 553.252 442.731 554.333 444.463 554.632V556.117C443.004 556.152 441.606 556.152 440.402 556.152ZM440.701 548.049H450.176V546.502H446.432V544.744H444.463V546.502H440.701V548.049ZM443.461 551.758C443.452 550.835 444.261 550.272 445.465 550.264C446.651 550.272 447.451 550.835 447.451 551.758C447.451 552.672 446.651 553.208 445.465 553.199C444.261 553.208 443.452 552.672 443.461 551.758Z" fill="black"/>
<path d="M206.336 524.925V509.705L208.61 507.367L219.515 524.925C219.515 524.925 221.332 527.877 224.945 528.821C228.559 529.766 257.706 526.657 257.706 526.657L275.428 524.925H242.561C235.277 524.925 228.488 521.225 224.514 515.089L215.173 500.666L228.559 486.952H225.716L206.336 506.381V488.08C206.336 487.825 206.315 487.572 206.245 487.327C205.945 486.279 204.792 483.368 201.259 483.368C196.949 483.368 196 487.697 196 487.697V524.925H206.336Z" fill="black"/>
<path d="M258.12 524.925V498.485H235.709V500.303H245.613C247.215 500.303 247.68 500.926 247.68 502.121V524.925H258.12ZM257.706 490.485C257.706 487.939 255.949 485.914 252.383 485.914C248.817 485.914 247.06 487.939 247.06 490.485C247.06 493.03 248.817 495.056 252.383 495.056C255.949 495.056 257.706 493.03 257.706 490.485Z" fill="black"/>
<path d="M275.428 524.925V502.692C277.237 501.394 278.943 500.926 281.165 500.926C284.473 500.926 284.989 502.381 284.989 504.718V524.925H295.325V505.861C295.325 500.407 293.62 497.446 286.54 497.446C281.32 497.446 277.909 498.537 275.428 500.459V498.485H261.549V500.303H263.025C264.627 500.303 265.092 500.926 265.092 502.121V524.925H275.428Z" fill="black"/>
<path d="M330.22 469.637H317.041V471.455H317.817C319.419 471.455 319.884 472.078 319.884 473.273V499.887C318.282 497.861 316.059 497.446 313.165 497.446C305.982 497.446 299.47 502.173 299.47 511.575C299.47 520.978 305.982 525.757 313.165 525.757C317.455 525.757 318.54 525.445 320.659 524.562L322.158 523.938C323.295 523.471 324.122 523.367 325.93 523.367H329.083C329.961 523.367 330.22 523.107 330.22 522.276V469.637ZM314.302 523.679C310.891 523.679 309.806 520.146 309.806 511.575C309.806 504.562 310.891 499.524 314.302 499.524C318.127 499.524 319.729 502.848 319.884 508.251V519.575C319.884 522.172 318.333 523.679 314.302 523.679Z" fill="black"/>
<path d="M365.869 510.484C365.869 503.212 360.391 497.446 350.107 497.446C339.822 497.446 334.344 503.212 334.344 511.575C334.344 519.939 339.306 525.757 350.624 525.757C360.391 525.757 365.869 522.328 365.869 516.718V513.67L355.533 515.894V517.237C355.533 520.718 355.223 523.679 350.624 523.679C345.714 523.679 344.732 519.055 344.68 512.562H355.307L365.869 510.484ZM350.107 499.524C354.706 499.524 355.533 504.562 355.533 509.965V510.484H344.68C344.732 504.043 345.714 499.524 350.107 499.524Z" fill="black"/>
<path d="M381.111 524.925V504.147C382.868 503.212 384.367 503.056 385.814 503.056C388.346 503.056 393.256 504.364 396.098 506.753V498.796C394.393 497.861 392.739 497.446 390.672 497.446C386.744 497.446 383.953 498.64 381.111 501.03C381.111 499.624 379.977 498.485 378.579 498.485H367.932V500.303H368.708C370.31 500.303 370.775 500.926 370.775 502.121V524.925H381.111Z" fill="black"/>
<path d="M408.403 522.327V473.221C408.403 470.467 409.489 469.169 411.556 469.169C413.365 469.169 414.346 469.325 415.742 469.792L416.569 468.286C414.657 466.779 411.504 466 408.041 466C400.599 466 397.964 468.753 397.964 475.974V522.327C397.964 522.327 399.364 524.925 403.67 524.925C407.977 524.925 408.403 522.327 408.403 522.327Z" fill="black"/>
<path d="M444.265 510.484C444.265 503.212 438.787 497.446 428.502 497.446C418.218 497.446 412.74 503.212 412.74 511.575C412.74 519.939 417.701 525.757 429.019 525.757C438.787 525.757 444.265 522.328 444.265 516.718V513.67L433.929 515.874V517.237C433.929 520.718 433.619 523.679 429.019 523.679C424.109 523.679 423.127 519.055 423.076 512.562H433.929L444.265 510.484ZM428.502 499.524C433.102 499.524 433.929 504.562 433.929 509.965V510.484H423.076C423.127 504.043 424.109 499.524 428.502 499.524Z" fill="black"/>
<path d="M462.607 525.757C472.427 525.757 477.853 523.419 477.853 517.809C477.853 512.718 474.184 510.536 465.708 508.354L463.899 507.887C459.972 506.848 458.731 506.277 458.731 503.835C458.731 501.134 460.023 499.524 462.607 499.524C465.191 499.524 466.483 501.134 466.483 504.355V507.529C466.483 507.529 468.973 508.342 472.578 509.052C476.182 509.762 476.819 507.529 476.819 507.529V505.134C476.819 500.043 471.393 497.446 462.607 497.446C453.822 497.446 448.395 499.783 448.395 505.394C448.395 510.484 452.22 512.406 460.799 514.64L462.607 515.108C466.587 516.146 467.517 516.926 467.517 519.367C467.517 522.068 466.225 523.679 462.607 523.679C458.99 523.679 457.698 522.068 457.698 518.848V515.783C457.698 515.783 454.727 513.636 451.044 513.653C447.362 513.67 447.362 515.783 447.362 515.783V517.809C447.362 523.419 452.788 525.757 462.607 525.757Z" fill="black"/>
<path d="M484.033 515.783C484.033 523.003 486.669 525.757 494.111 525.757C499.124 525.757 501.605 524.094 503 521.549L501.501 520.406C500.778 521.445 499.641 522.588 497.832 522.588C495.506 522.588 494.473 521.289 494.473 518.536V473.273C494.473 473.273 494.111 470.381 489.804 470.381C485.498 470.381 484.033 473.273 484.033 473.273V515.783Z" fill="black"/>
<path d="M502.725 487.696V492.025C502.725 492.025 502.725 487.696 469.348 487.696C445.772 487.696 426.169 492.025 402.594 492.025C369.217 492.025 369.217 487.696 369.217 487.696V483.367C369.217 483.367 369.217 487.696 402.594 487.696C426.169 487.696 445.772 483.367 469.348 483.367C502.725 483.367 502.725 487.696 502.725 487.696Z" fill="black"/>
</svg>
