<svg xmlns="http://www.w3.org/2000/svg" width="72" height="15" fill="none" viewBox="0 0 72 15">
  <path fill="#FF7700" d="M2.4 13.612v-3.516l.528-.54 2.532 4.056s.422.682 1.261.9c.839.218 7.607-.5 7.607-.5l4.115-.4h-7.632a5 5 0 0 1-4.19-2.272L4.452 8.008 7.56 4.84H6.9L2.4 9.328V5.101a.625.625 0 0 0-.021-.174c-.07-.242-.337-.915-1.158-.915-1 0-1.221 1-1.221 1v8.6h2.4Z"/>
  <path fill="#FF7700" d="M14.424 13.612V7.504H9.22v.42h2.3c.372 0 .48.144.48.42v5.268h2.424Zm-.096-7.956c0-.588-.408-1.056-1.236-1.056-.828 0-1.236.468-1.236 1.056 0 .588.408 1.056 1.236 1.056.828 0 1.236-.468 1.236-1.056Zm4.115 7.956V8.476c.42-.3.816-.408 1.332-.408.768 0 .888.336.888.876v4.668h2.4V9.208c0-1.26-.396-1.944-2.04-1.944-1.212 0-2.004.252-2.58.696v-.456H15.22v.42h.343c.372 0 .48.144.48.42v5.268h2.4ZM31.165.84h-3.06v.42h.18c.372 0 .48.144.48.42v6.148c-.372-.468-.888-.564-1.56-.564-1.668 0-3.18 1.092-3.18 3.264 0 2.172 1.512 3.276 3.18 3.276.996 0 1.248-.072 1.74-.276l.348-.144c.264-.108.456-.132.876-.132h.732c.204 0 .264-.06.264-.252V.84ZM27.47 13.324c-.792 0-1.044-.816-1.044-2.796 0-1.62.252-2.784 1.044-2.784.888 0 1.26.768 1.296 2.016v2.616c0 .6-.36.948-1.296.948Zm11.973-3.048c0-1.68-1.272-3.012-3.66-3.012s-3.66 1.332-3.66 3.264c0 1.932 1.152 3.276 3.78 3.276 2.268 0 3.54-.792 3.54-2.088v-.704l-2.4.514v.31c0 .804-.072 1.488-1.14 1.488-1.14 0-1.368-1.068-1.38-2.568h2.467l2.453-.48Zm-3.66-2.532c1.068 0 1.26 1.164 1.26 2.412v.12h-2.52c.012-1.488.24-2.532 1.26-2.532Zm7.199 5.868v-4.8c.408-.216.756-.252 1.092-.252.588 0 1.728.302 2.388.854V7.576a2.486 2.486 0 0 0-1.26-.312c-.912 0-1.56.276-2.22.828a.588.588 0 0 0-.588-.588h-2.472v.42h.18c.372 0 .48.144.48.42v5.268h2.4Zm6.338-.6V1.668c0-.636.251-.936.731-.936.42 0 .648.036.972.144l.192-.348C50.771.18 50.04 0 49.235 0c-1.728 0-2.34.636-2.34 2.304v10.708s.325.6 1.325.6 1.1-.6 1.1-.6Zm8.326-2.736c0-1.68-1.272-3.012-3.66-3.012s-3.66 1.332-3.66 3.264c0 1.932 1.152 3.276 3.78 3.276 2.268 0 3.54-.792 3.54-2.088v-.704l-2.4.51v.314c0 .804-.072 1.488-1.14 1.488-1.14 0-1.368-1.068-1.38-2.568h2.52l2.4-.48Zm-3.66-2.532c1.068 0 1.26 1.164 1.26 2.412v.12h-2.52c.012-1.488.24-2.532 1.26-2.532Zm7.919 6.06c2.28 0 3.54-.54 3.54-1.836 0-1.176-.852-1.68-2.82-2.184l-.42-.108c-.912-.24-1.2-.372-1.2-.936 0-.624.3-.996.9-.996.6 0 .9.372.9 1.116v.733s.578.188 1.415.352c.837.164.985-.352.985-.352V9.04c0-1.176-1.26-1.776-3.3-1.776s-3.3.54-3.3 1.836c0 1.176.888 1.62 2.88 2.136l.42.108c.924.24 1.14.42 1.14.984 0 .624-.3.996-1.14.996-.84 0-1.14-.372-1.14-1.116V11.5s-.69-.496-1.545-.492c-.855.004-.855.492-.855.492v.468c0 1.296 1.26 1.836 3.54 1.836ZM66.88 11.5c0 1.668.612 2.304 2.34 2.304 1.164 0 1.74-.384 2.064-.972l-.348-.264c-.168.24-.432.504-.852.504-.54 0-.78-.3-.78-.936V1.68s-.084-.668-1.084-.668-1.34.668-1.34.668v9.82Z"/>
  <path fill="#FF7700" d="M71.22 5.012v1s0-1-7.75-1c-5.474 0-10.026 1-15.5 1-7.75 0-7.75-1-7.75-1v-1s0 1 7.75 1c5.474 0 10.026-1 15.5-1 7.75 0 7.75 1 7.75 1Z"/>
</svg>
