<svg xmlns="http://www.w3.org/2000/svg" width="18" height="18" fill="none" viewBox="0 0 18 18">
  <circle cx="9" cy="9" r="7.5" fill="#333" stroke="#FFD53F"/>
  <path fill="#fff" d="m10.097 12.194-2.142-3.71c-.252-.437-.537-.73-.854-.88-.321-.155-.679-.12-1.074.108a1.394 1.394 0 0 0-.652.958 1.93 1.93 0 0 0 .015.699c.044.252.146.516.306.793l1.98 3.43-1.154.666L3.09 8.313l1.133-.654.228.395A2.506 2.506 0 0 1 5.629 6.64c.381-.22.756-.339 1.124-.357a2.12 2.12 0 0 1 1.06.205c.082-.435.248-.812.497-1.132.25-.32.548-.58.894-.78.658-.38 1.29-.471 1.892-.274.607.185 1.121.646 1.546 1.38l2.184 3.783-1.154.666-2.142-3.71c-.252-.437-.537-.73-.854-.88-.321-.155-.68-.12-1.074.108-.16.092-.299.219-.418.38a1.457 1.457 0 0 0-.236.552c-.042.2-.043.422-.003.667.04.245.133.5.278.768l2.028 3.513-1.154.666Z"/>
</svg>
